<mxfile host="app.diagrams.net" modified="2021-08-07T16:28:15.566Z" agent="5.0 (Windows NT 10.0; Win64; x64) AppleWebKit/537.36 (KHTML, like Gecko) Chrome/92.0.4515.107 Safari/537.36" etag="r6eN-NdksmNdPsBQGr4Q" version="14.9.5" type="github">
  <diagram id="jUhk6dudq-LoQoSoC8Pb" name="Page-1">
    <mxGraphModel dx="955" dy="777" grid="1" gridSize="10" guides="1" tooltips="1" connect="1" arrows="1" fold="1" page="1" pageScale="1" pageWidth="850" pageHeight="1100" math="0" shadow="0">
      <root>
        <mxCell id="0" />
        <mxCell id="1" parent="0" />
        <mxCell id="peVSAdYnbz2KnUi6o690-1" value="" style="fontColor=#0066CC;verticalAlign=top;verticalLabelPosition=bottom;labelPosition=center;align=center;html=1;outlineConnect=0;fillColor=#CCCCCC;strokeColor=#6881B3;gradientColor=none;gradientDirection=north;strokeWidth=2;shape=mxgraph.networks.pc;" vertex="1" parent="1">
          <mxGeometry x="560" y="240" width="100" height="70" as="geometry" />
        </mxCell>
        <mxCell id="peVSAdYnbz2KnUi6o690-11" style="edgeStyle=orthogonalEdgeStyle;rounded=1;orthogonalLoop=1;jettySize=auto;html=1;exitX=0.5;exitY=0;exitDx=0;exitDy=0;exitPerimeter=0;endArrow=none;endFill=0;" edge="1" parent="1" source="peVSAdYnbz2KnUi6o690-2" target="peVSAdYnbz2KnUi6o690-6">
          <mxGeometry relative="1" as="geometry">
            <Array as="points">
              <mxPoint x="675" y="250" />
              <mxPoint x="675" y="250" />
            </Array>
          </mxGeometry>
        </mxCell>
        <mxCell id="peVSAdYnbz2KnUi6o690-2" value="" style="fontColor=#0066CC;verticalAlign=top;verticalLabelPosition=bottom;labelPosition=center;align=center;html=1;outlineConnect=0;fillColor=#CCCCCC;strokeColor=#6881B3;gradientColor=none;gradientDirection=north;strokeWidth=2;shape=mxgraph.networks.server;" vertex="1" parent="1">
          <mxGeometry x="630" y="400" width="90" height="100" as="geometry" />
        </mxCell>
        <mxCell id="peVSAdYnbz2KnUi6o690-12" style="edgeStyle=orthogonalEdgeStyle;rounded=1;orthogonalLoop=1;jettySize=auto;html=1;exitX=1;exitY=0.5;exitDx=0;exitDy=0;exitPerimeter=0;entryX=0;entryY=0.5;entryDx=0;entryDy=0;entryPerimeter=0;endArrow=none;endFill=0;" edge="1" parent="1" source="peVSAdYnbz2KnUi6o690-3" target="peVSAdYnbz2KnUi6o690-6">
          <mxGeometry relative="1" as="geometry" />
        </mxCell>
        <mxCell id="peVSAdYnbz2KnUi6o690-3" value="" style="fontColor=#0066CC;verticalAlign=top;verticalLabelPosition=bottom;labelPosition=center;align=center;html=1;outlineConnect=0;fillColor=#CCCCCC;strokeColor=#6881B3;gradientColor=none;gradientDirection=north;strokeWidth=2;shape=mxgraph.networks.router;" vertex="1" parent="1">
          <mxGeometry x="350" y="170" width="100" height="30" as="geometry" />
        </mxCell>
        <mxCell id="peVSAdYnbz2KnUi6o690-8" style="edgeStyle=orthogonalEdgeStyle;rounded=1;orthogonalLoop=1;jettySize=auto;html=1;exitX=0;exitY=0.5;exitDx=0;exitDy=0;exitPerimeter=0;endArrow=none;endFill=0;" edge="1" parent="1" source="peVSAdYnbz2KnUi6o690-4" target="peVSAdYnbz2KnUi6o690-5">
          <mxGeometry relative="1" as="geometry" />
        </mxCell>
        <mxCell id="peVSAdYnbz2KnUi6o690-13" style="edgeStyle=orthogonalEdgeStyle;rounded=1;orthogonalLoop=1;jettySize=auto;html=1;exitX=1;exitY=0.5;exitDx=0;exitDy=0;exitPerimeter=0;endArrow=none;endFill=0;" edge="1" parent="1" source="peVSAdYnbz2KnUi6o690-4" target="peVSAdYnbz2KnUi6o690-3">
          <mxGeometry relative="1" as="geometry" />
        </mxCell>
        <mxCell id="peVSAdYnbz2KnUi6o690-4" value="" style="fontColor=#0066CC;verticalAlign=top;verticalLabelPosition=bottom;labelPosition=center;align=center;html=1;outlineConnect=0;fillColor=#CCCCCC;strokeColor=#6881B3;gradientColor=none;gradientDirection=north;strokeWidth=2;shape=mxgraph.networks.firewall;" vertex="1" parent="1">
          <mxGeometry x="210" y="70" width="100" height="100" as="geometry" />
        </mxCell>
        <mxCell id="peVSAdYnbz2KnUi6o690-5" value="" style="html=1;outlineConnect=0;fillColor=#CCCCCC;strokeColor=#6881B3;gradientColor=none;gradientDirection=north;strokeWidth=2;shape=mxgraph.networks.cloud;fontColor=#ffffff;" vertex="1" parent="1">
          <mxGeometry x="30" y="40" width="90" height="50" as="geometry" />
        </mxCell>
        <mxCell id="peVSAdYnbz2KnUi6o690-9" style="edgeStyle=orthogonalEdgeStyle;rounded=1;orthogonalLoop=1;jettySize=auto;html=1;exitX=0.5;exitY=1;exitDx=0;exitDy=0;exitPerimeter=0;entryX=0.5;entryY=0.07;entryDx=0;entryDy=0;entryPerimeter=0;endArrow=none;endFill=0;" edge="1" parent="1" source="peVSAdYnbz2KnUi6o690-6" target="peVSAdYnbz2KnUi6o690-1">
          <mxGeometry relative="1" as="geometry" />
        </mxCell>
        <mxCell id="peVSAdYnbz2KnUi6o690-10" style="edgeStyle=orthogonalEdgeStyle;rounded=1;orthogonalLoop=1;jettySize=auto;html=1;exitX=0.9;exitY=1;exitDx=0;exitDy=0;exitPerimeter=0;entryX=0.5;entryY=0.07;entryDx=0;entryDy=0;entryPerimeter=0;endArrow=none;endFill=0;" edge="1" parent="1" source="peVSAdYnbz2KnUi6o690-6" target="peVSAdYnbz2KnUi6o690-7">
          <mxGeometry relative="1" as="geometry" />
        </mxCell>
        <mxCell id="peVSAdYnbz2KnUi6o690-6" value="" style="fontColor=#0066CC;verticalAlign=top;verticalLabelPosition=bottom;labelPosition=center;align=center;html=1;outlineConnect=0;fillColor=#CCCCCC;strokeColor=#6881B3;gradientColor=none;gradientDirection=north;strokeWidth=2;shape=mxgraph.networks.switch;" vertex="1" parent="1">
          <mxGeometry x="610" y="170" width="100" height="30" as="geometry" />
        </mxCell>
        <mxCell id="peVSAdYnbz2KnUi6o690-7" value="" style="fontColor=#0066CC;verticalAlign=top;verticalLabelPosition=bottom;labelPosition=center;align=center;html=1;outlineConnect=0;fillColor=#CCCCCC;strokeColor=#6881B3;gradientColor=none;gradientDirection=north;strokeWidth=2;shape=mxgraph.networks.pc;" vertex="1" parent="1">
          <mxGeometry x="700" y="250" width="100" height="70" as="geometry" />
        </mxCell>
        <mxCell id="peVSAdYnbz2KnUi6o690-14" value="Internet" style="text;html=1;resizable=0;autosize=1;align=center;verticalAlign=middle;points=[];fillColor=none;strokeColor=none;rounded=0;" vertex="1" parent="1">
          <mxGeometry x="30" y="120" width="60" height="20" as="geometry" />
        </mxCell>
        <mxCell id="peVSAdYnbz2KnUi6o690-15" value="Firewall" style="text;html=1;resizable=0;autosize=1;align=center;verticalAlign=middle;points=[];fillColor=none;strokeColor=none;rounded=0;" vertex="1" parent="1">
          <mxGeometry x="220" y="180" width="60" height="20" as="geometry" />
        </mxCell>
        <mxCell id="peVSAdYnbz2KnUi6o690-16" value="Router" style="text;html=1;resizable=0;autosize=1;align=center;verticalAlign=middle;points=[];fillColor=none;strokeColor=none;rounded=0;" vertex="1" parent="1">
          <mxGeometry x="375" y="210" width="50" height="20" as="geometry" />
        </mxCell>
        <mxCell id="peVSAdYnbz2KnUi6o690-17" value="Switch" style="text;html=1;resizable=0;autosize=1;align=center;verticalAlign=middle;points=[];fillColor=none;strokeColor=none;rounded=0;" vertex="1" parent="1">
          <mxGeometry x="645" y="130" width="50" height="20" as="geometry" />
        </mxCell>
        <mxCell id="peVSAdYnbz2KnUi6o690-18" value="PC 1" style="text;html=1;resizable=0;autosize=1;align=center;verticalAlign=middle;points=[];fillColor=none;strokeColor=none;rounded=0;" vertex="1" parent="1">
          <mxGeometry x="570" y="320" width="40" height="20" as="geometry" />
        </mxCell>
        <mxCell id="peVSAdYnbz2KnUi6o690-19" value="PC 2" style="text;html=1;resizable=0;autosize=1;align=center;verticalAlign=middle;points=[];fillColor=none;strokeColor=none;rounded=0;" vertex="1" parent="1">
          <mxGeometry x="750" y="330" width="40" height="20" as="geometry" />
        </mxCell>
        <mxCell id="peVSAdYnbz2KnUi6o690-20" value="Server" style="text;html=1;resizable=0;autosize=1;align=center;verticalAlign=middle;points=[];fillColor=none;strokeColor=none;rounded=0;" vertex="1" parent="1">
          <mxGeometry x="645" y="510" width="50" height="20" as="geometry" />
        </mxCell>
      </root>
    </mxGraphModel>
  </diagram>
</mxfile>
